<?xml version="1.0" encoding="UTF-8" standalone="no"?>
<svg
   id="svg"
   version="1.1"
   style="display:block"
   viewBox="0 0 1454.2528 600.39065"
   xmlns="http://www.w3.org/2000/svg"
   xmlns:svg="http://www.w3.org/2000/svg">
  <defs
     id="defs153" />
  <path
     d="m 735.04121,203.49168 c 4.1845,3.85419 8.18908,7.87633 12.21167,11.89894 0.33,-8.25 0.66,-16.5 1,-25 7.59,0 15.18,0 23,0 0.0697,20.28973 0.12311,40.57945 0.15544,60.8693 0.0154,9.42269 0.0364,18.84528 0.0709,28.2679 0.0301,8.22067 0.0493,16.44129 0.056,24.66199 0.004,4.34563 0.0129,8.69111 0.0349,13.0367 0.15024,30.8601 -0.44287,63.50872 -23.26031,87.15995 -1.34076,1.34629 -2.69834,2.67579 -4.05688,4.00415 -0.63293,0.66515 -1.26586,1.33031 -1.91797,2.01562 -14.61998,14.32952 -37.91588,18.90456 -57.51953,19.23438 -24.37135,-0.45602 -46.60493,-6.99348 -64.5625,-24.25 -7.0874,-7.86992 -15,-18.97819 -15,-30 8.91,0 17.82,0 27,0 2.97,5.445 2.97,5.445 6,11 9.02321,11.77606 21.029,17.38384 35.63281,19.53515 18.28826,1.66084 35.90866,-1.8495 50.36719,-13.53515 0.99,-0.77731 1.98,-1.55461 3,-2.35547 12.14451,-10.70556 18.68927,-27.76347 19.99995,-43.64453 0.12625,-3.67484 0.1302,-7.32557 0,-11 -0.58266,0.68964 -1.16531,1.3793 -1.76563,2.08984 -13.88675,15.91736 -31.02875,26.40505 -52.23437,28.91016 -26.18066,1.53359 -51.27643,-3.76436 -71.375,-21.5625 -1.54891,-1.47159 -3.09128,-2.9501 -4.625,-4.4375 -0.6123,-0.53883 -1.22461,-1.07765 -1.85547,-1.63281 -14.84267,-13.51805 -22.42138,-34.79232 -24.14453,-54.36718 -1.08571,-24.49156 4.22882,-48.38739 21,-67 0.43055,-0.4797 0.86109,-0.9594 1.30469,-1.45362 28.87143,-31.71576 87.31786,-42.9922 121.48364,-12.44532 z"
     style="fill:currentColor"
     id="path84" />
  <path
     d="m 1424.5771,0 c 2.6758,0.390625 2.6758,0.390625 4.6328,2.53125 11.6423,19.509972 18.4339,41.317751 21.043,63.859375 0.1108,0.885586 0.2217,1.771172 0.3359,2.683594 6.9571,66.280071 -20.5961,132.075541 -56.3359,186.316401 -0.8376,1.28884 -1.6749,2.5779 -2.5117,3.86719 -8.7733,13.4221 -18.3177,26.30793 -27.9749,39.1023 -4.2336,5.62154 -8.3465,11.32525 -12.4492,17.04271 -4.0894,5.68122 -8.2804,11.27918 -12.5017,16.8628 -36.1917,48.03382 -75.3121,106.26499 -66.7412,169.51707 1.7094,11.00634 4.2785,22.17403 8.8193,32.38136 1.4234,3.37844 1.7045,5.60257 1.3594,9.22656 -1,1 -1,1 -3.5625,1.0625 -0.8044,-0.0206 -1.6088,-0.0412 -2.4375,-0.0625 -21.2823,-37.81007 -19.6624,-85.62183 -8.6524,-126.29688 10.64,-37.54399 31.0986,-69.87239 54.1133,-100.91796 13.5702,-18.31713 26.5964,-37.02169 39.5391,-55.78516 -2.8754,-6.03972 -6.1778,-11.55683 -9.875,-17.125 -1.1625,-1.76888 -2.3239,-3.53845 -3.4844,-5.3086 -0.5988,-0.91249 -1.1975,-1.82499 -1.8144,-2.76514 -3.6193,-5.55171 -7.1563,-11.15582 -10.7032,-16.75389 -2.7908,-4.39935 -5.5961,-8.78701 -8.4511,-13.14501 -0.5155,-0.78802 -1.031,-1.57605 -1.5621,-2.38794 -0.9664,-1.47379 -1.9366,-2.94512 -2.9111,-4.41357 -3.1987,-4.88078 -3.1987,-4.88078 -3.1987,-7.10085 -0.66,0 -1.32,0 -2,0 -0.1748,0.54791 -0.3497,1.09581 -0.5298,1.66031 -1.7846,5.48608 -3.8173,10.80316 -6.0679,16.11314 -0.346,0.82404 -0.692,1.64806 -1.0485,2.49707 -1.1357,2.70279 -2.276,5.40363 -3.4163,8.10449 -0.8077,1.91995 -1.6151,3.84004 -2.4221,5.76026 -1.6748,3.9841 -3.351,7.96759 -5.0281,11.95068 -2.345,5.57215 -4.68,11.14844 -7.0108,16.72656 -0.3648,0.87303 -0.7296,1.74606 -1.1055,2.64554 -0.7346,1.75815 -1.4693,3.5163 -2.204,5.27445 -6.9166,16.54758 -13.878,33.0759 -20.8625,49.59494 -5.8409,13.81547 -11.647,27.64507 -17.4295,41.48507 -6.1018,14.60217 -12.247,29.18523 -18.4375,43.75 -0.3722,0.87606 -0.7443,1.7521 -1.1278,2.6547 -1.0411,2.45011 -2.0834,4.89977 -3.1261,7.34922 -0.3095,0.72798 -0.619,1.45596 -0.9379,2.20598 -2.129,4.99419 -2.129,4.99419 -3.2457,7.2276 -8.25,0 -16.5,0 -25,0 0.6827,-3.4135 1.1986,-5.79802 2.5029,-8.86547 0.3041,-0.72168 0.6083,-1.44336 0.9216,-2.18691 0.4937,-1.15163 0.4937,-1.15163 0.9974,-2.32652 0.3418,-0.80793 0.6837,-1.61584 1.0359,-2.44824 1.093,-2.58036 2.1924,-5.1579 3.2922,-7.73537 0.7244,-1.70619 1.4483,-3.41258 2.1719,-5.11915 0.5298,-1.24745 0.5298,-1.24745 1.0704,-2.5201 0.7002,-1.65305 1.3971,-3.30755 2.0906,-4.96344 1.4736,-3.50806 2.9764,-6.95571 4.6534,-10.37338 0.4841,-1.00691 0.9681,-2.01384 1.4668,-3.05126 0.4244,-0.82234 0.8489,-1.64468 1.2861,-2.49194 1.5073,-8.61215 -4.6763,-18.68007 -7.8898,-26.59391 -0.93,-2.29044 -1.8547,-4.58293 -2.7781,-6.87606 -0.9696,-2.40789 -1.9395,-4.8157 -2.9109,-7.22287 -3.0441,-7.54471 -6.0519,-15.10358 -9.0507,-22.66642 -0.8731,-2.20194 -1.7469,-4.40358 -2.621,-6.60515 -2.4146,-6.08251 -4.828,-12.16555 -7.2408,-18.24883 -1.9009,-4.79257 -3.8025,-9.58488 -5.7049,-14.37686 -0.3108,-0.78279 -0.6216,-1.56554 -0.9417,-2.37206 -3.9518,-9.95099 -7.9254,-19.89279 -11.9337,-29.82116 -1.1943,-2.95909 -2.3865,-5.91906 -3.5792,-8.87881 -1.7258,-4.28128 -3.4605,-8.55883 -5.2002,-12.83447 -0.7613,-1.88651 -1.5222,-3.77314 -2.2827,-5.65992 -0.5181,-1.26176 -0.5181,-1.26176 -1.0466,-2.54901 -0.3079,-0.76798 -0.6159,-1.53596 -0.9332,-2.32721 -0.2678,-0.65918 -0.5356,-1.31836 -0.8116,-1.99751 -0.5641,-1.88799 -0.5641,-1.88799 -0.5641,-5.88799 8.58,0 17.16,0 26,0 4.4994,8.99874 4.4994,8.99874 5.8491,12.51758 0.3099,0.8018 0.6198,1.60358 0.9392,2.42967 0.3251,0.85273 0.6502,1.70545 0.9851,2.58401 0.3564,0.92435 0.7128,1.8487 1.0799,2.80106 0.7723,2.00409 1.543,4.00885 2.312,6.0142 2.0977,5.46857 4.209,10.9319 6.3191,16.39569 0.4437,1.14972 0.8873,2.29943 1.3445,3.48398 5.2102,13.48795 10.5014,26.94388 15.7961,40.39883 0.4544,1.15508 0.9089,2.31018 1.3771,3.50025 2.6221,6.66449 2.6221,6.66449 5.2447,13.3288 4.2662,10.84273 8.5121,21.6934 12.7532,32.54595 7.4324,-17.39409 14.6521,-34.86822 21.7978,-52.38182 6.5027,-15.93343 13.0662,-31.84123 19.6573,-47.73828 4.9392,-11.92437 9.779,-23.88519 14.5449,-35.8799 7.5615,-0.25404 15.1219,-0.42885 22.6868,-0.54931 2.5717,-0.0502 5.1431,-0.11841 7.7138,-0.20509 3.7018,-0.12164 7.3998,-0.17807 11.1033,-0.22217 1.145,-0.0516 2.2901,-0.10321 3.4699,-0.15639 7.8331,-0.005 7.8331,-0.005 11.2458,3.25094 1.811,2.55594 3.3144,5.11623 4.7804,7.88202 1.0369,1.66376 2.0825,3.32225 3.1406,4.97265 1.039,1.69507 2.0754,3.39173 3.1094,5.08985 5.7731,9.4085 11.7084,18.69956 17.75,27.9375 2.7741,-2.6368 4.9749,-5.24043 7.0312,-8.46485 0.5571,-0.87132 1.1141,-1.74265 1.688,-2.64038 0.5877,-0.93465 1.1753,-1.8693 1.7808,-2.83227 0.6173,-0.97783 1.2346,-1.95566 1.8706,-2.96314 6.1818,-9.86592 12.0201,-19.89842 17.6294,-30.09936 0.4974,-0.89768 0.9948,-1.79535 1.5073,-2.72022 23.4658,-42.6123 39.9229,-92.405901 28.4927,-141.279775 -0.4177,-1.85625 -0.4177,-1.85625 -0.8438,-3.75 -2.8012,-11.398069 -6.5387,-23.114769 -11.8554,-33.601562 -1.5244,-3.1036288 -1.6186,-5.232395 -1.3008,-8.648438 1,-1 1,-1 3.3242,-1.390625 z"
     style="fill:currentColor"
     id="path86" />
  <path
     d="m 940.87788,202.51562 c 1.46702,1.28179 2.92643,2.5724 4.375,3.875 0.89332,0.68255 0.89332,0.68255 1.80469,1.3789 18.2534,14.0896 26.06658,37.71996 29.19531,59.6211 0,5.61001 0,11.22001 0,17 -52.14,0 -104.28,0 -158,0 2.61663,13.85904 2.61663,13.85904 7.6875,26.5 0.51264,0.9744 0.51264,0.9744 1.03564,1.9685 7.71836,14.07455 20.3525,23.11936 35.27686,28.5315 19.31617,5.47568 38.7011,3.89929 56.32422,-5.75392 5.21568,-3.05756 9.5237,-6.8713 13.67578,-11.24608 0.85465,-0.87786 0.85465,-0.87786 1.72656,-1.77344 2.25691,-2.46524 4.0226,-4.64988 5.3667,-7.73998 1.3581,-2.99345 2.59471,-5.1352 4.90674,-7.48658 4.66726,-1.25561 9.08445,-0.94937 13.875,-0.625 1.2607,0.0451 2.52141,0.0902 3.82031,0.13673 3.10643,0.11766 6.20311,0.28177 9.30469,0.48827 -6.63837,20.67532 -22.06345,38.93673 -41.10547,49.31642 -12.10984,6.19842 -25.24101,10.15758 -38.89453,10.68358 -0.82113,0.04 -1.64227,0.0799 -2.48828,0.12108 -23.84453,0.60053 -45.36891,-6.48505 -63.51172,-22.12108 -0.67418,-0.52981 -1.34836,-1.05962 -2.04297,-1.60548 -15.86719,-12.82675 -26.03268,-33.45236 -28.95703,-53.39452 -1.70405,-29.58943 2.81174,-53.79878 22.33984,-76.75 30.18953,-32.14859 89.00261,-38.94599 124.28516,-11.125 z"
     style="fill:currentColor"
     id="path88" />
  <path
     d="m 524.08003,220.74071 c 15.28117,12.3327 25.22038,28.05832 28.17285,47.64991 1.63103,19.48298 -3.8665,36.87405 -16,52 -0.55558,0.7206 -1.11117,1.44117 -1.68359,2.18361 -10.51452,12.93511 -25.99287,20.61401 -42.31641,22.81639 -20.12119,1.58058 -37.43705,-5.26995 -52.57031,-18.19531 -13.01249,-12.30672 -20.16182,-28.70236 -20.76416,-46.46583 -0.30998,-18.84521 4.8895,-36.45913 18.22656,-50.28417 1.35792,-1.363 2.73245,-2.7094 4.10791,-4.05468 0.63422,-0.66644 1.26844,-1.33289 1.92188,-2.01954 21.36232,-20.93696 57.54367,-20.89248 80.90527,-3.63038 z"
     style="fill:none"
     id="path90" />
  <path
     d="m 722.25288,222.39062 c 1.05187,0.78374 2.10375,1.56749 3.1875,2.375 13.03368,12.16477 21.69753,29.75174 22.8125,47.625 0.0793,1.19304 0.0793,1.19304 0.16016,2.41017 0.6338,18.711 -6.29847,35.17293 -18.61329,48.98046 -11.82358,12.11372 -27.21613,20.70767 -44.36181,20.98998 -20.46608,-0.0409 -35.44622,-5.69323 -50.18506,-20.38062 -0.93779,-0.90299 -0.93779,-0.90299 -1.89453,-1.82422 -13.20207,-13.73849 -17.64607,-32.44785 -17.3086,-50.99219 0.69056,-18.39657 9.34187,-34.78334 22.50391,-47.38672 24.65244,-21.14217 58.57357,-22.01386 83.69922,-1.79686 z"
     style="fill:none"
     id="path92" />
  <path
     d="m 541.72554,205.14062 c 3.48404,3.1017 6.45563,6.73947 9.52734,10.25 0.33,-8.25 0.66,-16.5 1,-25 7.59,0 15.18,0 23,0 0,56.76 0,113.51999 0,172 -7.59,0 -15.18,0 -23,0 -0.33,-7.92001 -0.66,-15.83999 -1,-24 -1.58812,1.67061 -3.17625,3.34125 -4.8125,5.0625 -14.97808,15.22483 -36.02844,22.93043 -57.19848,23.17897 -27.45678,0.0685 -50.45303,-6.92994 -70.43042,-26.65161 -18.75418,-20.02349 -24.4762,-43.21216 -23.90625,-70.03125 0.94624,-23.66283 11.7157,-44.01457 28.64843,-60.16797 33.14254,-29.35345 82.90524,-30.24753 118.17188,-4.64064 z m -102.47266,23.25 c -1.15048,1.10408 -1.15048,1.10408 -2.32422,2.23046 -12.64788,12.81967 -17.82784,29.41759 -18.11328,47.14454 0.13111,18.47803 6.39385,34.60656 19.48438,47.83204 11.65993,11.26119 25.61774,18.58398 41.95312,19.79296 1.29358,0.0986 1.29358,0.0986 2.61329,0.19923 17.92419,0.70337 34.20739,-6.31536 47.33984,-18.21094 14.43288,-13.74367 21.69269,-31.73631 22.35937,-51.42579 -0.16656,-17.41487 -6.78064,-32.60892 -18.3125,-45.5625 -0.56589,-0.6368 -1.13179,-1.2736 -1.71484,-1.92969 -12.16755,-12.88329 -28.55522,-19.89914 -46.22266,-20.44531 -18.41578,0.63418 -34.27063,7.04547 -47.0625,20.375 z"
     style="fill:currentColor"
     id="path94" />
  <path
     d="m 0.25288445,190.39062 c 7.59000015,0 15.17999955,0 22.99999955,0 0.01458,3.22337 0.02916,6.44676 0.04419,9.76782 0.05053,10.69693 0.117155,21.39372 0.191526,32.0905 0.04457,6.48007 0.08385,12.9601 0.110721,19.44025 0.02617,6.26361 0.06667,12.52697 0.11675,18.79043 0.01658,2.37955 0.02815,4.75912 0.03443,7.13869 -0.06158,29.14578 -0.06158,29.14578 12.459417,54.76839 9.442729,9.26218 22.3149,11.89862 35.105469,12.25392 13.716591,-0.15731 28.107977,-3.80136 38.351553,-13.44531 11.282,-12.83815 13.69358,-28.0428 13.79126,-44.53517 0.01,-1.0448 0.0198,-2.0896 0.03,-3.16606 0.0314,-3.4303 0.0563,-6.86062 0.0811,-10.29097 0.0206,-2.38754 0.0416,-4.77507 0.063,-7.1626 0.055,-6.26675 0.10453,-12.53354 0.15285,-18.80035 0.0503,-6.4017 0.10596,-12.80336 0.16113,-19.20502 0.10733,-12.54813 0.20833,-25.09632 0.3066,-37.64453 7.92,0 15.84,0 24,0 0,56.76 0,113.52 0,172 -7.92,0 -15.84,0 -24,0 -0.33,-5.27999 -0.66,-10.56 -1,-16 -2.475,2.47501 -2.475,2.47501 -5,5 -13.44366,11.97246 -29.191679,15.58616 -46.874996,15.375 -1.226543,-0.009 -2.453086,-0.0188 -3.716797,-0.0286 -18.510589,-0.3081 -35.263545,-4.431 -49.337891,-17.08082 C 9.6082466,340.59271 4.6690099,327.55394 2.2528846,315.39062 2.0842137,314.55065 1.9155429,313.71071 1.7417608,312.8453 -0.35687414,300.53699 0.00192266,288.18833 0.05757195,275.74218 c 0.003737,-2.46863 0.00658,-4.93727 0.008575,-7.40591 0.007586,-6.45416 0.0271907,-12.90822 0.049408,-19.36234 0.0205675,-6.60328 0.0296169,-13.20657 0.0396729,-19.80985 0.0213615,-12.92455 0.0565019,-25.84898 0.0976566,-38.77346 z"
     style="fill:currentColor"
     id="path96" />
  <path
     d="m 1125.2529,202.39062 c 13.4617,10.90639 19.0195,27.76349 20.7983,44.44311 0.369,4.67841 0.3315,9.35313 0.3152,14.04347 2e-4,1.11323 3e-4,2.22645 5e-4,3.3734 -7e-4,3.65218 -0.01,7.30429 -0.016,10.95644 0,2.54305 0,5.08609 0,7.62912 0,5.9921 -0.011,11.98415 -0.021,17.97624 -0.011,6.82716 -0.017,13.65432 -0.022,20.4815 -0.01,14.03224 -0.029,28.06448 -0.05,42.09672 -7.59,0 -15.18,0 -23,0 -0.015,-3.25367 -0.029,-6.50734 -0.044,-9.85962 -0.051,-10.79672 -0.1171,-21.59328 -0.1915,-32.38986 -0.045,-6.54061 -0.084,-13.08116 -0.1107,-19.62187 -0.026,-6.32195 -0.067,-12.64367 -0.1168,-18.96548 -0.017,-2.40186 -0.028,-4.80377 -0.034,-7.20568 0.12,-29.65273 0.12,-29.65273 -14.0219,-54.76219 -3.8383,-3.39702 -7.6856,-5.44264 -12.4805,-7.19531 -1.2858,-0.47566 -1.2858,-0.47566 -2.5977,-0.96094 -15.1788,-4.65397 -33.1484,-3.46887 -47.2148,3.77344 -11.7232,6.89601 -18.4722,16.05105 -22.1875,29.1875 -0.5649,2.85862 -0.8936,5.70638 -1.1616,8.60669 -0.079,0.81128 -0.159,1.62255 -0.2409,2.45842 -0.9307,10.3917 -0.9537,20.80226 -1.0116,31.22786 -0.019,2.17003 -0.038,4.34006 -0.059,6.51008 -0.051,5.64351 -0.091,11.28704 -0.1281,16.93066 -0.04,5.78609 -0.091,11.57209 -0.1413,17.35809 -0.096,11.30267 -0.1797,22.60539 -0.2578,33.90821 -7.26,0 -14.52,0 -22.00003,0 0,-56.76 0,-113.51999 0,-172 7.26003,0 14.52003,0 22.00003,0 0.495,8.41499 0.495,8.41499 1,17 2.2894,-2.01095 2.2894,-2.01095 4.625,-4.0625 27.4615,-22.38519 70.2153,-21.55526 98.375,-0.9375 z"
     style="fill:currentColor"
     id="path98" />
  <path
     d="m 249.25288,135.39062 c 7.59,0 15.18,0 23,0 0,18.15 0,36.3 0,55 11.22,0 22.44,0 34,0 0,7.92 0,15.84 0,24 -11.22,0 -22.44,0 -34,0 0,48.84001 0,97.68 0,148 -7.59,0 -15.18,0 -23,0 0,-48.84001 0,-97.68 0,-148 -11.22,0 -22.44,0 -34,0 0,-7.92 0,-15.84001 0,-24 11.22,0 22.44,0 34,0 0,-18.15001 0,-36.3 0,-55 z"
     style="fill:currentColor"
     id="path100" />
  <path
     d="m 172.25288,71.390625 c 7.59,0 15.18,0 23,0 0,96.029985 0,192.059985 0,290.999995 -7.59,0 -15.18,0 -23,0 0,-96.02999 0,-192.06001 0,-290.999995 z"
     style="fill:currentColor"
     id="path102" />
  <path
     d="m 928.25288,222.39062 c 12.15425,9.92387 19.82065,26.74457 22,42 -43.56,0 -87.12,0 -132,0 4.83319,-19.33277 11.3751,-36.09016 28.77148,-47.12354 25.37788,-14.88635 58.07047,-13.46756 81.22852,5.12354 z"
     style="fill:none"
     id="path104" />
  <path
     d="m 389.25288,188.39062 c 0,8.25 0,16.5 0,25 -3.34125,0.55687 -3.34125,0.55687 -6.75,1.125 -8.3758,1.58111 -17.30936,4.20679 -23.25,10.6875 -6.40114,10.20181 -8.29472,19.93816 -8.31885,31.83594 -0.01,1.14233 -0.0201,2.28467 -0.0304,3.46161 -0.0308,3.75498 -0.0478,7.50988 -0.0648,11.26495 -0.0187,2.61174 -0.0383,5.22348 -0.0587,7.83519 -0.0466,6.15855 -0.0835,12.3171 -0.11667,18.47573 -0.0383,7.01583 -0.0877,14.03157 -0.13798,21.04731 -0.10312,14.42219 -0.19099,28.84444 -0.2726,43.26677 -7.92,0 -15.84,0 -24,0 0,-56.76 0,-113.51999 0,-172 7.26,0 14.52,0 22,0 0.495,8.41499 0.495,8.41499 1,17 0.96938,-1.19625 1.93875,-2.3925 2.9375,-3.625 9.8825,-11.23193 22.39864,-15.375 37.0625,-15.375 z"
     style="fill:currentColor"
     id="path106" />
  <path
     d="m 616.25288,468.39062 c 5.33908,4.14481 8.79225,8.82779 10.6875,15.375 0.94274,7.91897 0.0579,13.52711 -3.6875,20.625 -4.06135,5.07668 -9.8267,8.94223 -16,11 -7.32937,0.56462 -13.36734,0.25603 -20,-3 -0.99,-0.99 -1.98,-1.98001 -3,-3 -0.33,7.26 -0.66,14.51999 -1,22 -2.64,0 -5.28,0 -8,0 0,-21.77999 0,-43.56 0,-66 2.31,0 4.62,0 7,0 0.33,1.98001 0.66,3.95999 1,6 0.84563,-0.78375 1.69125,-1.5675 2.5625,-2.375 8.77059,-7.21684 21.05945,-5.99063 30.4375,-0.625 z"
     style="fill:currentColor"
     id="path108" />
  <path
     d="m 722.25288,468.39062 c 1.75,1.63673 1.75,1.63673 3,3 0.33,-1.98001 0.66,-3.95999 1,-6 2.31,0 4.62,0 7,0 0,16.17001 0,32.34001 0,49 -2.31,0 -4.62,0 -7,0 -0.495,-2.97001 -0.495,-2.97001 -1,-6 -0.53109,0.42151 -1.06219,0.84305 -1.60938,1.27733 -1.0596,0.82178 -1.0596,0.82178 -2.14062,1.66017 -0.69609,0.54528 -1.39219,1.09055 -2.10938,1.65233 -5.08026,3.34668 -11.26854,2.97015 -17.14062,2.41017 -6.82822,-1.79742 -13.37855,-4.77704 -17.21484,-10.95702 -4.0168,-7.70484 -5.08253,-15.19851 -2.72266,-23.66798 2.80585,-7.54814 8.92867,-11.93669 15.9375,-15.375 8.27837,-2.55908 16.66929,-1.56642 24,3 z"
     style="fill:currentColor"
     id="path110" />
  <path
     d="m 1195.2529,467.39062 c 2.5,2.1875 2.5,2.1875 4,4 0.33,-1.98001 0.66,-3.95999 1,-6 2.31,0 4.62,0 7,0 0,16.17001 0,32.34001 0,49 -2.31,0 -4.62,0 -7,0 -0.495,-2.97001 -0.495,-2.97001 -1,-6 -0.8869,0.78375 -1.7737,1.5675 -2.6875,2.375 -5.2333,4.62477 -10.4836,5.07457 -17.25,4.93358 -8.2036,-0.82664 -14.5939,-5.31367 -20.0625,-11.30858 -4.3586,-6.53791 -3.7259,-14.39427 -3,-22 1.8568,-7.18385 6.9168,-11.51459 13.0664,-15.25781 8.5825,-4.39103 17.3942,-3.93701 25.9336,0.25781 z"
     style="fill:currentColor"
     id="path112" />
  <path
     d="m 883.25288,467.39062 c 2.5,1.6875 2.5,1.6875 4,3 0.33,-1.64999 0.66,-3.3 1,-5 2.31,0 4.62,0 7,0 0,16.17001 0,32.34001 0,49 -2.31,0 -4.62,0 -7,0 -0.33,-1.64999 -0.66,-3.3 -1,-5 -0.5427,0.34933 -1.08539,0.69867 -1.64453,1.05858 -0.71543,0.45504 -1.43086,0.91008 -2.16797,1.37892 -1.06154,0.67868 -1.06154,0.67868 -2.14453,1.37108 -5.30494,3.09371 -11.091,2.71767 -17.04297,2.19142 -6.98328,-1.87724 -13.22013,-5.93712 -17.32031,-11.92969 -3.60544,-6.8831 -4.10507,-14.9676 -2.01953,-22.43358 3.08544,-6.8788 8.30261,-12.00957 15.15234,-15.07423 8.27605,-2.91357 15.32391,-2.22314 23.1875,1.4375 z"
     style="fill:currentColor"
     id="path114" />
  <path
     d="m 1402.2529,280.39062 c 2.7655,2.62559 4.9385,5.20074 6.9609,8.42969 0.8199,1.29937 0.8199,1.29937 1.6563,2.625 0.8701,1.39605 0.8701,1.39605 1.7578,2.82031 1.2577,1.99748 2.5155,3.99489 3.7734,5.99219 0.9606,1.53091 0.9606,1.53091 1.9405,3.09276 2.9502,4.69288 5.9311,9.36604 8.9111,14.04004 1.1565,1.81628 2.3127,3.63268 3.4688,5.44922 0.8643,1.35811 0.8643,1.35811 1.746,2.74365 1.8572,2.92033 3.712,5.84211 5.5665,8.76416 0.6226,0.98033 1.2452,1.96067 1.8867,2.97071 1.1805,1.85886 2.3602,3.71821 3.539,5.57812 0.5401,0.85015 1.0803,1.70027 1.6368,2.57617 0.7792,1.22711 0.7792,1.22711 1.5742,2.479 2.0941,3.22838 4.2848,6.3877 6.498,9.53541 1.084,1.90357 1.084,1.90357 1.084,4.90357 -4.186,0.2919 -8.3694,0.46846 -12.5625,0.625 -1.1814,0.0838 -2.3629,0.16757 -3.5801,0.25392 -8.5721,0.24011 -8.5721,0.24011 -12.011,-2.75392 -1.8568,-2.61879 -3.3541,-5.28375 -4.8464,-8.125 -1.1455,-1.82533 -2.3032,-3.64301 -3.4727,-5.45312 -1.1991,-1.93075 -2.3956,-3.86309 -3.5898,-5.79688 -1.3078,-2.10595 -2.6164,-4.21141 -3.9258,-6.31642 -0.6608,-1.06234 -1.3216,-2.12468 -2.0024,-3.21924 -3.8023,-6.08268 -7.6656,-12.12651 -11.5291,-18.17041 -1.0566,-1.65452 -2.1096,-3.31137 -3.1579,-4.97119 -1.062,-1.66473 -2.1627,-3.30477 -3.2754,-4.93603 -1.0469,-2.13672 -1.0469,-2.13672 -0.7825,-4.01342 0.8393,-2.42248 1.9613,-4.15265 3.4583,-6.23266 0.5381,-0.7541 1.0763,-1.5082 1.6308,-2.28515 0.564,-0.77731 1.1279,-1.55462 1.709,-2.35548 0.5678,-0.79278 1.1357,-1.58555 1.7207,-2.40233 1.4002,-1.95322 2.8059,-3.90218 4.2168,-5.84767 z"
     style="fill:currentColor"
     id="path116" />
  <path
     d="m 995.25288,468.39062 c 4.96372,3.90141 8.13302,7.88038 10.00002,14 0.495,4.95 0.495,4.95 1,10 -14.19002,0 -28.38002,0 -43.00002,0 3.0054,8.01439 4.38314,10.17858 11.25,14.375 5.68963,1.29309 10.97376,0.54602 16.125,-2.125 2.71881,-2.14382 2.71881,-2.14382 4.5625,-5 2.0625,-2.25 2.0625,-2.25 5.81252,-2.5625 1.0725,0.10312 2.145,0.20625 3.25,0.3125 -0.4534,4.98784 -2.7575,8.33909 -6.00002,12 -6.57761,5.17813 -12.65444,6.53864 -20.89844,6.375 -6.62998,-0.8016 -12.00321,-3.82846 -16.53906,-8.6875 -5.30461,-6.98764 -6.4742,-14.02632 -5.5625,-22.6875 1.41703,-6.75453 5.18856,-12.27754 10.80469,-16.28906 9.18478,-5.47933 20.15079,-5.51308 29.19531,0.28906 z"
     style="fill:currentColor"
     id="path118" />
  <path
     d="m 793.56538,465.19139 c 3.46516,1.64977 6.05477,3.38936 8.6875,6.19923 1.29938,-1.17563 1.29938,-1.17563 2.625,-2.375 4.8944,-4.02733 9.82282,-5.11221 16.07422,-4.93361 6.69737,0.89829 11.00813,4.53094 15.17187,9.625 2.68632,4.00624 2.25743,8.23456 2.22657,12.85157 -10e-4,0.79481 -0.003,1.58963 -0.004,2.40852 -0.006,2.53704 -0.0181,5.07399 -0.0309,7.61102 -0.005,1.72071 -0.01,3.44139 -0.0137,5.1621 -0.011,4.21684 -0.0283,8.43359 -0.0488,12.6504 -2.31,0 -4.62,0 -7,0 -0.0146,-0.93795 -0.0292,-1.8759 -0.0442,-2.84229 -0.0613,-3.5004 -0.13547,-7.00006 -0.21827,-10.5 -0.0331,-1.51096 -0.0612,-3.02204 -0.084,-4.53321 -0.0338,-2.18004 -0.0861,-4.35899 -0.14184,-6.53856 -0.0262,-1.30922 -0.0524,-2.61841 -0.0793,-3.96729 -0.55334,-4.63117 -1.92721,-8.05975 -5.18236,-11.43115 -3.1653,-1.67057 -5.67468,-2.06421 -9.25,-2.1875 -3.46629,1.19986 -5.39259,2.21409 -7.63989,5.12183 -1.71221,3.62326 -1.83685,6.87398 -1.87183,10.80396 -0.018,0.74759 -0.0359,1.49518 -0.0544,2.26542 -0.0539,2.3737 -0.0879,4.74721 -0.12138,7.12129 -0.0332,1.61525 -0.0677,3.2305 -0.10352,4.84571 -0.0847,3.94711 -0.15163,7.89418 -0.20898,11.84179 -2.31,0 -4.62,0 -7,0 -0.0297,-1.30821 -0.0297,-1.30821 -0.0601,-2.64281 -0.0785,-3.26362 -0.16522,-6.52679 -0.25732,-9.79003 -0.0381,-1.40715 -0.073,-2.81438 -0.1045,-4.22168 -0.0461,-2.03345 -0.10404,-4.06629 -0.16406,-6.09937 -0.0314,-1.2202 -0.0628,-2.44036 -0.0952,-3.69752 -0.44847,-4.99122 -1.05525,-9.17667 -4.50635,-12.92359 -3.44964,-1.99313 -5.82695,-2.55507 -9.8125,-2.625 -4.21512,1.54014 -6.77892,3.09764 -9,7 -0.32455,2.75252 -0.48809,5.29199 -0.51172,8.04688 -0.018,0.7712 -0.0359,1.54241 -0.0544,2.33697 -0.054,2.45533 -0.088,4.91046 -0.12138,7.36615 -0.0332,1.66798 -0.0677,3.33596 -0.10352,5.00389 -0.0849,4.08191 -0.1517,8.16373 -0.20898,12.24611 -2.64,0 -5.28,0 -8,0 0,-16.17001 0,-32.34001 0,-49 2.31,0 4.62,0 7,0 0.33,0.99 0.66,1.98001 1,3 0.94875,-0.66001 1.8975,-1.32 2.875,-2 5.24339,-2.96596 10.76115,-3.16485 16.4375,-1.19923 z"
     style="fill:currentColor"
     id="path120" />
  <path
     d="m 632.25288,448.39062 c 2.64,0 5.28,0 8,0 0.33,6.60001 0.66,13.2 1,20 2.64,-1.32 5.28,-2.63999 8,-4 6.61961,-1.43259 12.06448,0.35064 17.86719,3.57031 4.74278,3.17924 7.55264,7.57281 8.67749,13.11183 0.48503,3.53431 0.56822,6.89943 0.55298,10.46632 -10e-4,0.65739 -0.003,1.31477 -0.004,1.99209 -0.006,2.07821 -0.0181,4.1563 -0.0309,6.23447 -0.005,1.41797 -0.01,2.83594 -0.0137,4.25391 -0.011,3.45706 -0.0282,6.91407 -0.0488,10.37109 -2.64,0 -5.28,0 -8,0 -0.009,-0.93272 -0.0187,-1.86544 -0.0283,-2.82642 -0.0442,-3.48755 -0.10593,-6.97391 -0.1792,-10.46093 -0.0281,-1.50412 -0.0494,-3.00838 -0.0635,-4.5127 -0.0216,-2.17286 -0.0683,-4.34402 -0.11963,-6.51636 -0.0209,-1.30396 -0.0419,-2.60793 -0.0635,-3.95141 -0.67215,-4.59378 -1.92278,-6.9217 -4.54613,-10.7322 -4.43171,-2.72721 -8.02435,-3.53197 -13.07031,-2.64844 -3.4423,1.15673 -5.39979,3.05685 -7.92969,5.64844 -1.18002,3.54005 -1.22912,6.82273 -1.31641,10.51173 -0.0208,0.72823 -0.0416,1.45646 -0.063,2.20675 -0.0653,2.32292 -0.12429,4.64595 -0.18312,6.96904 -0.0432,1.57618 -0.0868,3.15235 -0.13086,4.72852 -0.10699,3.8612 -0.20831,7.72254 -0.30664,11.58398 -2.64,0 -5.28,0 -8,0 0,-21.78 0,-43.56 0,-66 z"
     style="fill:currentColor"
     id="path122" />
  <path
     d="m 610.50288,474.07812 c 4.48436,3.77094 8.1967,7.43239 9.05859,13.47656 0.31906,6.09114 -0.72215,10.01394 -4.40234,14.91798 -4.13568,4.16109 -8.76481,5.61742 -14.46875,6.41798 -5.75231,-0.8367 -10.40166,-3.00406 -14.3125,-7.375 -3.67936,-5.41083 -4.58856,-9.55298 -3.66406,-15.94923 1.36032,-5.49059 4.95281,-9.11829 9.53906,-12.17579 6.22402,-2.97055 12.22748,-2.43957 18.25,0.6875 z"
     style="fill:none"
     id="path124" />
  <path
     d="m 880.06538,474.07812 c 4.29233,3.11404 6.5182,6.30462 8.1875,11.3125 0.56724,5.72695 0.24381,10.07835 -3,15 -3.51575,4.19937 -6.73117,6.44527 -12,8 -6.6712,0.46873 -11.29694,-1.07799 -16.375,-5.39844 -3.76927,-3.7149 -5.20001,-7.16931 -5.69141,-12.48437 0.1807,-5.7611 2.93254,-11.2009 7.06641,-15.11719 7.27467,-4.59607 14.07601,-5.22199 21.8125,-1.3125 z"
     style="fill:none"
     id="path126" />
  <path
     d="m 1191.5654,474.14062 c 5.2904,4.42917 8.2808,8.65742 9.0625,15.5625 -0.6034,5.93385 -2.7969,10.59528 -7.3125,14.5625 -5.517,3.82813 -9.0074,4.5102 -15.6289,3.66406 -5.6958,-1.26166 -9.2355,-4.85609 -12.4336,-9.53906 -2.4151,-4.58873 -2.9189,-8.99903 -1.3828,-14.01562 2.4021,-5.56939 6.1297,-9.01923 11.3828,-11.98438 5.5899,-1.90013 11.1864,-0.95815 16.3125,1.75 z"
     style="fill:none"
     id="path128" />
  <path
     d="m 716.50288,473.58985 c 5.32664,3.73062 7.6913,7.39781 9.625,13.61327 0.21918,5.58907 -1.7151,10.25432 -4.5625,15 -4.04338,3.82482 -8.20249,5.83582 -13.6875,6.75 -5.89931,-0.91541 -11.11379,-3.03447 -15.375,-7.32423 -3.6547,-5.11865 -4.1696,-10.1007 -3.25,-16.23827 1.79913,-5.50322 5.34474,-8.76635 10,-12 5.64139,-2.8207 11.67059,-2.77454 17.25,0.19923 z"
     style="fill:none"
     id="path130" />
  <path
     d="m 1142.2529,467.39062 c 4.3261,2.92327 7.7919,6.1941 10,11 0,0.99 0,1.98001 0,3 -2.8586,0.24226 -5.1955,0.42906 -8,0 -2.6875,-2.3125 -2.6875,-2.3125 -5,-5 -4.261,-3.31412 -8.6716,-4.28499 -14,-4 -5.6862,1.53753 -9.8748,3.87464 -13,9 -2.1467,4.07882 -2.4657,7.4205 -2,12 2.1982,6.34519 5.389,10.09949 11.375,13.25 6.2392,1.78265 10.9767,0.78332 16.625,-2.25 0.7838,-0.88689 1.5675,-1.77375 2.375,-2.6875 3.4037,-2.99849 5.4542,-2.73825 9.832,-2.48827 0.5917,0.058 1.1834,0.11602 1.793,0.17577 -1.9137,5.91501 -5.2634,10.17397 -10.5625,13.3125 -7.6976,3.77882 -16.5543,4.01982 -24.6875,1.25 -6.227,-2.81218 -10.8856,-7.85809 -13.9414,-13.92969 -2.1963,-7.15123 -1.8803,-15.3387 1.2539,-22.13281 3.9745,-6.78008 8.9738,-10.87007 16.5508,-13.03125 7.4423,-1.46168 14.5556,-0.86527 21.3867,2.53125 z"
     style="fill:currentColor"
     id="path132" />
  <path
     d="m 943.25288,468.39062 c 3.07064,2.72114 5.80733,5.52112 8,9 0,1.32 0,2.63999 0,4 -5.23752,0.43646 -5.23752,0.43646 -8,0 -2.1875,-2.3125 -2.1875,-2.3125 -4,-5 -4.2083,-3.36665 -8.69966,-4.27589 -14,-4 -4.82233,1.19497 -8.75212,2.90812 -12.5,6.1875 -2.45627,4.6055 -3.98529,8.96549 -3.08984,14.21875 1.55361,5.09382 3.47629,9.9146 8.3789,12.55858 5.0628,2.12091 9.95374,3.23132 15.28516,1.27344 3.22944,-1.51024 5.53855,-2.80265 7.92578,-5.48827 3.14393,-2.75095 5.92602,-2.02159 10,-1.75 -1.04604,5.85784 -5.24629,10.07133 -10.00781,13.40625 -6.96885,3.60014 -15.09982,3.95719 -22.61328,1.86329 -7.75204,-3.20278 -12.6853,-7.74552 -16.37891,-15.26954 -2.31483,-7.4692 -1.73018,-15.14072 1.80859,-22.07031 3.52252,-5.70533 9.68552,-10.47647 16.11719,-12.55077 8.12314,-1.4839 15.98637,-0.78109 23.07422,3.62108 z"
     style="fill:currentColor"
     id="path134" />
  <path
     d="m 1011.2529,465.39062 c 2.31,0 4.62,0 7,0 0.02,0.77078 0.04,1.54156 0.06,2.33569 0.096,3.53424 0.2053,7.06797 0.3149,10.60181 0.031,1.21236 0.062,2.42473 0.094,3.67383 0.038,11.51011 0.038,11.51011 4.3438,21.82617 4.292,3.06572 7.9057,4.11268 13.1875,3.5625 2.7113,-1.42622 2.7113,-1.42622 5,-3 0.66,0 1.32,0 2,0 3.1766,-8.32119 3.5341,-16.28641 3.6875,-25.125 0.033,-1.35159 0.068,-2.70317 0.1035,-4.05469 0.082,-3.27334 0.1512,-6.54647 0.209,-9.82031 2.31,0 4.62,0 7,0 0,16.17001 0,32.34001 0,49 -2.31,0 -4.62,0 -7,0 -0.495,-1.98001 -0.495,-1.98001 -1,-4 -0.7631,0.63936 -1.5262,1.27875 -2.3125,1.9375 -5.3188,4.08191 -11.2406,3.64337 -17.6875,3.0625 -5.9371,-1.69768 -9.5781,-4.96776 -13,-10 -1.9588,-4.70869 -2.2682,-8.99079 -2.1953,-14.02344 0,-0.74617 0.01,-1.49234 0.01,-2.26114 0.011,-2.36363 0.036,-4.7269 0.062,-7.09042 0.01,-1.61068 0.019,-3.22134 0.027,-4.83202 0.022,-3.93115 0.057,-7.86199 0.098,-11.79298 z"
     style="fill:currentColor"
     id="path136" />
  <path
     d="m 1067.2529,448.39062 c 2.64,0 5.28,0 8,0 0,5.61001 0,11.22001 0,17 3.63,0 7.26,0 11,0 0,2.31 0,4.62 0,7 -3.63,0 -7.26,0 -11,0 0,13.86001 0,27.72001 0,42 -2.64,0 -5.28,0 -8,0 0,-13.86001 0,-27.72001 0,-42 -3.3,0 -6.6,0 -10,0 0,-2.31 0,-4.62 0,-7 3.3,0 6.6,0 10,0 0,-5.61001 0,-11.22001 0,-17 z"
     style="fill:currentColor"
     id="path138" />
  <path
     d="m 761.25288,464.39062 c 0,2.31 0,4.62 0,7 -0.53109,0.23075 -1.06219,0.46148 -1.60938,0.69923 -0.7064,0.32612 -1.41281,0.65226 -2.14062,0.98827 -0.69609,0.31324 -1.39219,0.62649 -2.10938,0.94923 -2.84149,1.80964 -4.28727,3.53098 -6.14062,6.36327 -0.4099,2.76975 -0.60464,5.15843 -0.60938,7.92577 -0.0165,0.74759 -0.0331,1.49518 -0.0501,2.26543 -0.0484,2.37385 -0.0698,4.74705 -0.0905,7.12129 -0.0282,1.61527 -0.0581,3.2305 -0.0898,4.8457 -0.0738,3.94722 -0.12341,7.89408 -0.16016,11.84181 -2.64,0 -5.28,0 -8,0 0,-16.17001 0,-32.34001 0,-49 2.31,0 4.62,0 7,0 0.33,1.32 0.66,2.63999 1,4 0.76312,-0.63936 1.52625,-1.27875 2.3125,-1.9375 3.67,-2.81651 6.18291,-3.18426 10.6875,-3.0625 z"
     style="fill:currentColor"
     id="path140" />
  <path
     d="m 1215.2529,448.39062 c 2.31,0 4.62,0 7,0 0,21.77999 0,43.56 0,66 -2.31,0 -4.62,0 -7,0 0,-21.77999 0,-43.56 0,-66 z"
     style="fill:currentColor"
     id="path142" />
  <path
     d="m 991.6435,475.00781 c 2.98302,2.56308 4.87398,5.88801 6.60938,9.38281 0,0.32999 0,0.66001 0,1 -11.55,0 -23.10001,0 -35,0 2.14378,-6.43135 3.66587,-8.37279 9,-12 6.5733,-3.21672 13.31638,-2.14438 19.39062,1.61719 z"
     style="fill:none"
     id="path144" />
  <path
     d="m 1089.2529,465.39062 c 2.31,0 4.62,0 7,0 0,16.17001 0,32.34001 0,49 -2.31,0 -4.62,0 -7,0 0,-16.17001 0,-32.34001 0,-49 z"
     style="fill:currentColor"
     id="path146" />
  <path
     d="m 1089.2529,448.39062 c 2.31,0 4.62,0 7,0 0,3.95999 0,7.92001 0,12 -2.31,0 -4.62,0 -7,0 0,-3.95999 0,-7.92001 0,-12 z"
     style="fill:currentColor"
     id="path148" />
</svg>
